<?xml version="1.0" encoding="utf-8"?>
<!-- Generator: Adobe Illustrator 25.2.3, SVG Export Plug-In . SVG Version: 6.00 Build 0)  -->
<svg version="1.1" id="Capa_1" xmlns="http://www.w3.org/2000/svg" xmlns:xlink="http://www.w3.org/1999/xlink" x="0px" y="0px"
	 viewBox="0 0 311.8 311.8" style="enable-background:new 0 0 311.8 311.8;" xml:space="preserve">
<style type="text/css">
	.st0{fill:#FFFFFF;}
	.st1{fill:#A1A9FE;}
</style>
<g>
	<g>
		<path class="st0" d="M222.6,108.6C229,41.8,190.6,6,160.1,0.8c-25.2-4.3-41.7,9.1-41.7,9.1L108.7,89C41.8,82.7,6,121.1,0.8,151.6
			c-4.3,25.2,9.1,41.7,9.1,41.7l79.2,9.7c-6.4,66.9,31.9,102.7,62.5,107.9c25.2,4.3,41.7-9.1,41.7-9.1l9.7-79.2
			c66.9,6.4,102.6-31.9,107.8-62.5c4.3-25.2-9.1-41.7-9.1-41.7L222.6,108.6z M202.9,222.3L89.4,202.9l19.4-113.4L222.3,109
			L202.9,222.3z"/>
		<polygon class="st1" points="200.2,218 217.8,112.4 112.1,94 93.6,199.7 		"/>
	</g>
</g>
</svg>
